<?xml version="1.0" standalone="no"?>
<!DOCTYPE svg PUBLIC "-//W3C//DTD SVG 20010904//EN"
 "http://www.w3.org/TR/2001/REC-SVG-20010904/DTD/svg10.dtd">
<svg version="1.0" xmlns="http://www.w3.org/2000/svg"
 width="156.000000pt" height="85.000000pt" viewBox="0 0 156.000000 85.000000"
 preserveAspectRatio="xMidYMid meet">

<g transform="translate(0.000000,85.000000) scale(0.100000,-0.100000)"
fill="#000000" stroke="none">
<path d="M0 425 l0 -425 780 0 780 0 0 425 0 425 -780 0 -780 0 0 -425z m404
17 c28 -84 53 -152 56 -152 4 0 15 28 26 63 l20 62 50 0 c37 0 49 -4 49 -15 0
-10 -12 -16 -37 -18 -37 -3 -37 -3 -66 -90 -17 -52 -34 -87 -42 -87 -9 0 -32
56 -64 153 -28 83 -53 152 -57 152 -3 0 -14 -27 -24 -60 -20 -65 -33 -75 -91
-68 -44 5 -38 32 8 36 37 3 37 3 64 85 15 45 29 86 31 90 13 23 32 -13 77
-151z m534 20 c3 -21 1 -23 -30 -17 -25 5 -39 2 -55 -12 -35 -30 -38 -59 -8
-89 22 -22 32 -25 61 -19 33 6 35 4 32 -17 -3 -20 -9 -23 -56 -26 -47 -3 -56
0 -82 27 -23 23 -30 38 -30 68 1 75 44 114 120 110 39 -2 45 -5 48 -25z m82
-38 c14 -72 20 -70 40 14 12 51 13 53 43 50 29 -3 32 -7 47 -68 l17 -65 11 53
c7 29 12 60 12 67 0 10 11 15 31 15 21 0 30 -4 27 -12 -3 -7 -15 -55 -28 -105
-24 -93 -24 -93 -56 -93 -30 0 -32 2 -44 60 -7 33 -16 60 -20 60 -4 0 -13 -27
-20 -60 -12 -58 -14 -60 -45 -60 l-32 0 -27 98 c-14 54 -26 102 -26 105 0 4
13 7 29 7 28 0 29 -3 41 -66z m390 46 c42 -42 14 -106 -51 -116 -36 -6 -39 -9
-39 -40 0 -30 -3 -34 -25 -34 l-25 0 0 105 0 105 60 0 c47 0 64 -4 80 -20z"/>
<path d="M1320 420 c0 -27 3 -31 23 -28 16 2 22 10 22 28 0 18 -6 26 -22 28
-20 3 -23 -1 -23 -28z"/>
</g>
</svg>
